<?xml version="1.0" encoding="UTF-8"?>
<svg width="338px" height="50px" viewBox="0 0 338 50" version="1.1" xmlns="http://www.w3.org/2000/svg" xmlns:xlink="http://www.w3.org/1999/xlink">
    <!-- Generator: Sketch 41.2 (35397) - http://www.bohemiancoding.com/sketch -->
    <title>Artboard</title>
    <desc>Created with Sketch.</desc>
    <defs></defs>
    <g id="Page-1" stroke="none" stroke-width="1" fill="none" fill-rule="evenodd">
        <g id="Artboard">
            <g id="Group" transform="translate(2.000000, 5.000000)">
                <path d="M14.5566406,28.2851562 C14.5566406,27.2890575 14.2050816,26.5244167 13.5019531,25.9912109 C12.7988246,25.4580051 11.5332123,24.8955108 9.70507812,24.3037109 C7.87694398,23.7119111 6.42969283,23.1289091 5.36328125,22.5546875 C2.45701672,20.9843671 1.00390625,18.8691539 1.00390625,16.2089844 C1.00390625,14.826165 1.39355079,13.5927789 2.17285156,12.5087891 C2.95215233,11.4247993 4.07128177,10.578128 5.53027344,9.96875 C6.98926511,9.35937195 8.62694404,9.0546875 10.4433594,9.0546875 C12.2714935,9.0546875 13.9003835,9.38573888 15.3300781,10.0478516 C16.7597728,10.7099642 17.8701132,11.6445252 18.6611328,12.8515625 C19.4521524,14.0585998 19.8476562,15.4296798 19.8476562,16.9648438 L14.5742188,16.9648438 C14.5742188,15.7929629 14.2050818,14.8818392 13.4667969,14.2314453 C12.7285119,13.5810514 11.6914129,13.2558594 10.3554688,13.2558594 C9.0663998,13.2558594 8.0644567,13.5283176 7.34960938,14.0732422 C6.63476205,14.6181668 6.27734375,15.335933 6.27734375,16.2265625 C6.27734375,17.0585979 6.69628487,17.7558566 7.53417969,18.3183594 C8.3720745,18.8808622 9.60546061,19.4082007 11.234375,19.9003906 C14.23439,20.8027389 16.419915,21.9218683 17.7910156,23.2578125 C19.1621162,24.5937567 19.8476562,26.2578025 19.8476562,28.25 C19.8476562,30.4648548 19.009774,32.2021421 17.3339844,33.4619141 C15.6581947,34.721686 13.4023579,35.3515625 10.5664062,35.3515625 C8.59764641,35.3515625 6.80469559,34.9912145 5.1875,34.2705078 C3.57030441,33.5498011 2.33691831,32.5625063 1.48730469,31.3085938 C0.637691064,30.0546812 0.212890625,28.6015708 0.212890625,26.9492188 L5.50390625,26.9492188 C5.50390625,29.7734516 7.19138937,31.1855469 10.5664062,31.1855469 C11.8203188,31.1855469 12.7988246,30.9306666 13.5019531,30.4208984 C14.2050816,29.9111303 14.5566406,29.1992233 14.5566406,28.2851562 Z M47.2460938,35 L41.9726562,35 L41.9726562,24.03125 L31.6894531,24.03125 L31.6894531,35 L26.4160156,35 L26.4160156,9.40625 L31.6894531,9.40625 L31.6894531,19.7773438 L41.9726562,19.7773438 L41.9726562,9.40625 L47.2460938,9.40625 L47.2460938,35 Z M69.6171875,29.7265625 L60.3710938,29.7265625 L58.6132812,35 L53.0058594,35 L62.5332031,9.40625 L67.4199219,9.40625 L77,35 L71.3925781,35 L69.6171875,29.7265625 Z M61.7949219,25.4550781 L68.1933594,25.4550781 L64.9765625,15.875 L61.7949219,25.4550781 Z M91.8652344,25.6308594 L87.6640625,25.6308594 L87.6640625,35 L82.390625,35 L82.390625,9.40625 L91.9003906,9.40625 C94.9238432,9.40625 97.2558512,10.0800714 98.8964844,11.4277344 C100.537118,12.7753974 101.357422,14.6796752 101.357422,17.140625 C101.357422,18.8867275 100.979496,20.3427676 100.223633,21.5087891 C99.4677697,22.6748105 98.3222733,23.6035122 96.7871094,24.2949219 L102.324219,34.7539062 L102.324219,35 L96.6640625,35 L91.8652344,25.6308594 Z M87.6640625,21.359375 L91.9179688,21.359375 C93.2421941,21.359375 94.2675745,21.0224643 94.9941406,20.3486328 C95.7207068,19.6748013 96.0839844,18.7460997 96.0839844,17.5625 C96.0839844,16.3554627 95.7412144,15.4062535 95.0556641,14.7148438 C94.3701138,14.023434 93.3183665,13.6777344 91.9003906,13.6777344 L87.6640625,13.6777344 L87.6640625,21.359375 Z M123.763672,23.9082031 L113.638672,23.9082031 L113.638672,30.7636719 L125.521484,30.7636719 L125.521484,35 L108.365234,35 L108.365234,9.40625 L125.486328,9.40625 L125.486328,13.6777344 L113.638672,13.6777344 L113.638672,19.7773438 L123.763672,19.7773438 L123.763672,23.9082031 Z M151.548828,27.6171875 L154.994141,9.40625 L160.25,9.40625 L154.572266,35 L149.263672,35 L145.097656,17.8789062 L140.931641,35 L135.623047,35 L129.945312,9.40625 L135.201172,9.40625 L138.664062,27.5820312 L142.882812,9.40625 L147.347656,9.40625 L151.548828,27.6171875 Z M171.705078,35 L166.431641,35 L166.431641,9.40625 L171.705078,9.40625 L171.705078,35 Z M198.347656,13.6777344 L190.507812,13.6777344 L190.507812,35 L185.234375,35 L185.234375,13.6777344 L177.5,13.6777344 L177.5,9.40625 L198.347656,9.40625 L198.347656,13.6777344 Z M225.183594,35 L219.910156,35 L219.910156,24.03125 L209.626953,24.03125 L209.626953,35 L204.353516,35 L204.353516,9.40625 L209.626953,9.40625 L209.626953,19.7773438 L219.910156,19.7773438 L219.910156,9.40625 L225.183594,9.40625 L225.183594,35 Z" id="SHAREWITH" fill="#333333"></path>
                <path d="M259.175781,9.40625 L265.75,27.96875 L272.289062,9.40625 L279.214844,9.40625 L279.214844,35 L273.923828,35 L273.923828,28.0039062 L274.451172,15.9277344 L267.542969,35 L263.921875,35 L257.03125,15.9453125 L257.558594,28.0039062 L257.558594,35 L252.285156,35 L252.285156,9.40625 L259.175781,9.40625 Z M302.21875,23.9082031 L292.09375,23.9082031 L292.09375,30.7636719 L303.976562,30.7636719 L303.976562,35 L286.820312,35 L286.820312,9.40625 L303.941406,9.40625 L303.941406,13.6777344 L292.09375,13.6777344 L292.09375,19.7773438 L302.21875,19.7773438 L302.21875,23.9082031 Z" id="ME" fill="#00BBD4"></path>
                <path d="M327.908203,9.1796875 C327.908203,10.1692758 327.623375,10.9277317 327.053711,11.4550781 C326.484047,11.9824245 325.678391,12.2460938 324.636719,12.2460938 C323.595047,12.2460938 322.766605,11.8994175 322.151367,11.2060547 C321.53613,10.5126918 321.228516,9.58008398 321.228516,8.40820312 L321.228516,7.3046875 C321.228516,6.17186934 321.539385,5.25879253 322.161133,4.56542969 C322.782881,3.87206685 323.608068,3.52539062 324.636719,3.52539062 C325.697922,3.52539062 326.510088,3.79394263 327.073242,4.33105469 C327.636396,4.86816675 327.917969,5.62173994 327.917969,6.59179688 L326.394531,6.59179688 C326.394531,5.96679375 326.244793,5.51920708 325.945312,5.24902344 C325.645832,4.97883979 325.209638,4.84375 324.636719,4.84375 C324.037757,4.84375 323.573895,5.06347437 323.245117,5.50292969 C322.91634,5.94238501 322.748698,6.52994424 322.742188,7.265625 L322.742188,8.46679688 C322.742188,9.22851943 322.908201,9.82909937 323.240234,10.2685547 C323.572267,10.70801 324.037757,10.9277344 324.636719,10.9277344 C325.216149,10.9277344 325.652342,10.7958998 325.945312,10.5322266 C326.238283,10.2685534 326.384766,9.81771152 326.384766,9.1796875 L327.908203,9.1796875 Z M330.505859,7.88085938 C330.505859,6.8001248 330.261721,5.79590308 329.773438,4.86816406 C329.285154,3.94042505 328.595057,3.19824497 327.703125,2.64160156 C326.811193,2.08495815 325.834641,1.80664062 324.773438,1.80664062 C323.738276,1.80664062 322.776372,2.07356504 321.887695,2.60742188 C320.999019,3.14127871 320.300784,3.87694844 319.792969,4.81445312 C319.285154,5.75195781 319.03125,6.77408301 319.03125,7.88085938 C319.03125,8.98763574 319.283526,10.0097609 319.788086,10.9472656 C320.292646,11.8847703 320.989253,12.6253228 321.87793,13.1689453 C322.766606,13.7125678 323.731766,13.984375 324.773438,13.984375 C325.815109,13.984375 326.783524,13.7076851 327.678711,13.1542969 C328.573898,12.6009087 329.268878,11.8554734 329.763672,10.9179688 C330.258466,9.98046406 330.505859,8.96810439 330.505859,7.88085938 Z M317.839844,7.88085938 C317.839844,6.56574863 318.144203,5.34505771 318.75293,4.21875 C319.361657,3.09244229 320.204747,2.20540688 321.282227,1.55761719 C322.359706,0.90982749 323.523431,0.5859375 324.773438,0.5859375 C326.023444,0.5859375 327.187169,0.90982749 328.264648,1.55761719 C329.342128,2.20540688 330.185218,3.09244229 330.793945,4.21875 C331.402672,5.34505771 331.707031,6.56574863 331.707031,7.88085938 C331.707031,9.20899102 331.39779,10.4378199 330.779297,11.5673828 C330.160804,12.6969458 329.316086,13.5839812 328.245117,14.2285156 C327.174148,14.8730501 326.016933,15.1953125 324.773438,15.1953125 C323.516921,15.1953125 322.353195,14.8697949 321.282227,14.21875 C320.211258,13.5677051 319.369795,12.6790421 318.757812,11.5527344 C318.14583,10.4264267 317.839844,9.20248057 317.839844,7.88085938 Z" id="©" fill="#333333"></path>
            </g>
        </g>
    </g>
</svg>