<?xml version="1.0" encoding="UTF-8"?>
<svg width="12px" height="12px" viewBox="0 0 12 12" version="1.1" xmlns="http://www.w3.org/2000/svg" xmlns:xlink="http://www.w3.org/1999/xlink">
    <!-- Generator: Sketch 41.2 (35397) - http://www.bohemiancoding.com/sketch -->
    <title>Fill 83 Copy</title>
    <desc>Created with Sketch.</desc>
    <defs></defs>
    <g id="Symbols" stroke="none" stroke-width="1" fill="none" fill-rule="evenodd">
        <g id="VER-TODOS" transform="translate(-80.000000, -8.000000)" fill="#6D6E70">
            <path d="M82.9003404,8.77782878 C83.7935776,8.25927626 84.7667481,8 85.8195268,8 C86.8726304,8 87.8454759,8.25927626 88.7390381,8.77782878 C89.6326003,9.29638131 90.3393267,10.0012886 90.8592175,10.8925508 C91.3791082,11.7838129 91.6390535,12.7544784 91.6390535,13.8045473 C91.6390535,14.8546162 91.3791082,15.8252817 90.8592175,16.7165438 C90.3393267,17.607806 89.6326003,18.3127133 88.7390381,18.8312658 C87.8454759,19.3498183 86.8726304,19.6090946 85.8195268,19.6090946 C84.7667481,19.6090946 83.7935776,19.3498183 82.9003404,18.8312658 C82.0064533,18.3127133 81.2997268,17.607806 80.780161,16.7165438 C80.2599454,15.8252817 80,14.8546162 80,13.8045473 C80,12.7544784 80.2599454,11.7838129 80.780161,10.8925508 C81.2997268,10.0012886 82.0064533,9.29638131 82.9003404,8.77782878 C82.9003404,8.77782878 82.0064533,9.29638131 82.9003404,8.77782878 L82.9003404,8.77782878 L82.9003404,8.77782878 Z M84.8447317,10.8876894 L84.8447317,12.8322613 L82.8951415,12.8322613 L82.8951415,14.7768333 L84.8447317,14.7768333 L84.8447317,16.7214052 L86.7943219,16.7214052 L86.7943219,14.7768333 L88.7439121,14.7768333 L88.7439121,12.8322613 L86.7943219,12.8322613 L86.7943219,10.8876894 L84.8447317,10.8876894 L84.8447317,10.8876894 Z" id="Fill-83-Copy"></path>
        </g>
    </g>
</svg>