<?xml version="1.0" encoding="UTF-8" standalone="no"?>
<svg width="64px" height="64px" viewBox="0 0 64 64" version="1.1" xmlns="http://www.w3.org/2000/svg" xmlns:xlink="http://www.w3.org/1999/xlink">
    <!-- Generator: Sketch 40.3 (33839) - http://www.bohemiancoding.com/sketch -->
    <title>esq-icon</title>
    <desc>Created with Sketch.</desc>
    <defs>
        <path d="M27,54 C12.112,54 0,41.888 0,27 C0,12.112 12.112,0 27,0 C41.888,0 54,12.112 54,27 C54,41.888 41.888,54 27,54 L27,54 Z" id="path-1"></path>
        <filter x="-50%" y="-50%" width="200%" height="200%" filterUnits="objectBoundingBox" id="filter-2">
            <feMorphology radius="0.5" operator="dilate" in="SourceAlpha" result="shadowSpreadOuter1"></feMorphology>
            <feOffset dx="0" dy="2" in="shadowSpreadOuter1" result="shadowOffsetOuter1"></feOffset>
            <feMorphology radius="1" operator="erode" in="SourceAlpha" result="shadowInner"></feMorphology>
            <feOffset dx="0" dy="2" in="shadowInner" result="shadowInner"></feOffset>
            <feComposite in="shadowOffsetOuter1" in2="shadowInner" operator="out" result="shadowOffsetOuter1"></feComposite>
            <feGaussianBlur stdDeviation="2" in="shadowOffsetOuter1" result="shadowBlurOuter1"></feGaussianBlur>
            <feColorMatrix values="0 0 0 0 0   0 0 0 0 0   0 0 0 0 0  0 0 0 0.5 0" type="matrix" in="shadowBlurOuter1"></feColorMatrix>
        </filter>
    </defs>
    <g id="Symbols" stroke="none" stroke-width="1" fill="none" fill-rule="evenodd">
        <g id="icons-fix" transform="translate(-275.000000, -19.000000)">
            <g id="esq-icon" transform="translate(280.000000, 22.000000)">
                <g id="Group">
                    <g id="Shape">
                        <path d="M1,27 C1,12.641 12.641,1 27,1 C41.359,1 53,12.641 53,27 C53,41.359 41.359,53 27,53 C12.641,53 1,41.359 1,27 Z"></path>
                        <g>
                            <use fill="black" fill-opacity="1" filter="url(#filter-2)" xlink:href="#path-1"></use>
                            <use stroke="#61112A" stroke-width="1" xlink:href="#path-1"></use>
                        </g>
                    </g>
                    <path d="M22.294,40 C22.038,40 21.782,39.902 21.587,39.707 C21.196,39.316 21.196,38.684 21.587,38.293 L32.88,27 L21.587,15.707 C21.196,15.316 21.196,14.684 21.587,14.293 C21.978,13.902 22.61,13.902 23.001,14.293 L34.499,25.791 C35.166,26.458 35.166,27.542 34.499,28.209 L23.001,39.707 C22.806,39.902 22.55,40 22.294,40 L22.294,40 Z" id="Shape" fill="#61112A"></path>
                </g>
            </g>
        </g>
    </g>
</svg>